<svg width="40" height="41" viewBox="0 0 40 41" fill="none" xmlns="http://www.w3.org/2000/svg">
<g clip-path="url(#clip0_1_27)">
<path fill-rule="evenodd" clip-rule="evenodd" d="M21.4286 0.75H18.5714V13.4006L13.8324 1.67116L11.1833 2.74147L16.0451 14.7748L6.86802 5.5977L4.84772 7.61802L13.6435 16.4138L2.24482 11.4336L1.10092 14.0518L13.1621 19.3214H0V22.1786H13.1621L1.10092 27.4482L2.24482 30.0664L13.6435 25.0862L4.84772 33.882L6.86802 35.9022L16.0451 26.7252L11.1833 38.7586L13.8324 39.8288L18.5714 28.0994V40.75H21.4286V28.0994L26.1676 39.8288L28.8166 38.7586L23.955 26.7252L33.132 35.9022L35.1522 33.882L26.3564 25.0862L37.7552 30.0664L38.899 27.4482L26.838 22.1786H40V19.3214H26.8378L38.899 14.0518L37.7552 11.4336L26.3564 16.4138L35.1522 7.618L33.132 5.5977L23.955 14.7748L28.8166 2.74147L26.1676 1.67116L21.4286 13.4006V0.75Z" fill="#E94D35"/>
</g>
<defs>
<clipPath id="clip0_1_27">
<rect width="40" height="40" fill="white" transform="translate(0 0.75)"/>
</clipPath>
</defs>
</svg>
