<svg width="84" height="241" viewBox="0 0 84 241" fill="none" xmlns="http://www.w3.org/2000/svg">
<path fill-rule="evenodd" clip-rule="evenodd" d="M128.572 0.5625H111.429V76.4662L82.9945 6.08948L67.0999 12.5113L96.2706 84.7112L41.2081 29.6487L29.0863 41.7706L81.8612 94.5454L13.4689 64.6642L6.60551 80.3732L78.9726 111.992H0V129.135H78.9725L6.60553 160.751L13.4689 176.46L81.8611 146.579L29.0863 199.355L41.2081 211.475L96.2706 156.413L67.0999 228.615L82.9945 235.036L111.429 164.658V240.562H128.572V164.658L157.006 235.036L172.9 228.615L143.73 156.413L198.792 211.475L210.913 199.355L158.138 146.579L226.531 176.46L233.394 160.751L161.028 129.135H240V111.992H161.027L233.394 80.3732L226.531 64.6642L158.138 94.5454L210.913 41.7705L198.792 29.6487L143.73 84.7111L172.9 12.5113L157.006 6.08948L128.572 76.4662V0.5625Z" fill="#E94D35"/>
</svg>
